<?xml version="1.0" standalone="no"?>
<!DOCTYPE svg PUBLIC "-//W3C//DTD SVG 20010904//EN"
 "http://www.w3.org/TR/2001/REC-SVG-20010904/DTD/svg10.dtd">
<svg version="1.0" xmlns="http://www.w3.org/2000/svg"
 width="150.000000pt" height="50.000000pt" viewBox="0 0 150.000000 50.000000"
 preserveAspectRatio="xMidYMid meet">

<g transform="translate(0.000000,50.000000) scale(0.100000,-0.100000)"
fill="#000000" stroke="none">
<path d="M39 341 c-60 -60 -18 -141 72 -141 40 0 79 39 79 80 0 43 -47 90 -90
90 -22 0 -41 -9 -61 -29z m103 -18 c39 -35 7 -98 -48 -91 -18 2 -34 13 -43 29
-13 24 -13 29 2 53 20 30 61 35 89 9z"/>
<path d="M239 341 c-59 -59 -18 -141 70 -141 41 0 63 21 59 55 -4 40 -28 45
-28 6 0 -29 -3 -31 -35 -31 -26 0 -39 6 -52 26 -15 24 -15 29 -2 53 13 22 22
26 60 27 63 1 67 3 39 19 -41 23 -78 18 -111 -14z"/>
<path d="M410 285 c0 -68 3 -85 14 -85 11 0 16 15 18 53 l3 52 25 -42 c14 -24
28 -43 32 -43 4 0 20 19 35 42 l28 43 3 -52 c2 -39 7 -53 18 -53 12 0 14 15
12 82 -2 50 -7 83 -14 85 -7 2 -26 -21 -44 -52 -17 -30 -33 -55 -35 -55 -2 0
-18 25 -35 55 -46 81 -60 74 -60 -30z"/>
<path d="M658 288 c-24 -54 -33 -84 -25 -87 6 -2 17 6 25 18 11 15 25 21 52
21 27 0 41 -6 52 -21 8 -12 19 -20 25 -18 17 6 -58 169 -77 169 -9 0 -29 -32
-52 -82z m67 12 c20 -39 20 -40 -16 -40 -26 0 -30 3 -24 18 4 9 10 25 12 35 7
23 10 22 28 -13z"/>
</g>
</svg>
